<svg xmlns="http://www.w3.org/2000/svg" viewBox="0 0 32 32" role="img" aria-label="Node Map">
  <defs>
    <linearGradient id="bg" x1="4" y1="4" x2="28" y2="28" gradientUnits="userSpaceOnUse">
      <stop stop-color="#171717"/>
      <stop offset="1" stop-color="#0c4a6e"/>
    </linearGradient>
    <linearGradient id="pin" x1="16" y1="7" x2="16" y2="26" gradientUnits="userSpaceOnUse">
      <stop stop-color="#22d3ee"/>
      <stop offset="1" stop-color="#0891b2"/>
    </linearGradient>
  </defs>
  <rect width="32" height="32" rx="7" fill="url(#bg)"/>
  <!-- map grid -->
  <path
    d="M7 11h18M7 16h18M7 21h18M11 7v18M16 7v18M21 7v18"
    stroke="#334155"
    stroke-width="1"
    stroke-linecap="round"
    opacity="0.9"
  />
  <rect x="7" y="7" width="7" height="7" rx="1" fill="#0e7490" opacity="0.25"/>
  <rect x="18" y="18" width="7" height="7" rx="1" fill="#06b6d4" opacity="0.2"/>
  <!-- location pin -->
  <path
    d="M16 8.5c-1.9 0-3.5 1.6-3.5 3.5 0 2.8 3.5 7.2 3.5 7.2s3.5-4.4 3.5-7.2c0-1.9-1.6-3.5-3.5-3.5z"
    fill="url(#pin)"
    stroke="#a5f3fc"
    stroke-width="0.75"
  />
  <circle cx="16" cy="12" r="1.25" fill="#0f172a"/>
</svg>
